<?xml version="1.0" encoding="UTF-8" standalone="no"?>
<!-- Created with Inkscape (http://www.inkscape.org/) -->

<svg
   width="512"
   height="512"
   viewBox="0 0 135.46666 135.46667"
   version="1.1"
   id="svg5578"
   inkscape:version="1.2 (dc2aedaf03, 2022-05-15)"
   sodipodi:docname="icon.svg"
   inkscape:export-filename="icon.png"
   inkscape:export-xdpi="96"
   inkscape:export-ydpi="96"
   xmlns:inkscape="http://www.inkscape.org/namespaces/inkscape"
   xmlns:sodipodi="http://sodipodi.sourceforge.net/DTD/sodipodi-0.dtd"
   xmlns="http://www.w3.org/2000/svg"
   xmlns:svg="http://www.w3.org/2000/svg">
  <sodipodi:namedview
     id="namedview5580"
     pagecolor="#ffffff"
     bordercolor="#666666"
     borderopacity="1.0"
     inkscape:showpageshadow="2"
     inkscape:pageopacity="0.0"
     inkscape:pagecheckerboard="0"
     inkscape:deskcolor="#d1d1d1"
     inkscape:document-units="mm"
     showgrid="false"
     inkscape:zoom="0.32"
     inkscape:cx="-268.75"
     inkscape:cy="234.375"
     inkscape:window-width="1920"
     inkscape:window-height="1017"
     inkscape:window-x="-8"
     inkscape:window-y="-8"
     inkscape:window-maximized="1"
     inkscape:current-layer="layer1" />
  <defs
     id="defs5575">
    <rect
       x="156.97505"
       y="148.08968"
       width="476.84872"
       height="268.0423"
       id="rect1028" />
    <rect
       x="136.24249"
       y="261.37827"
       width="200.72046"
       height="90.704926"
       id="rect1030" />
  </defs>
  <g
     inkscape:label="Layer 1"
     inkscape:groupmode="layer"
     id="layer1">
    <rect
       style="fill:#ffffff;fill-opacity:1;stroke:none;stroke-width:0.658516;stroke-linecap:square;stroke-linejoin:round;stroke-dasharray:none;stroke-opacity:1;paint-order:normal;stop-color:#000000"
       id="rect5552"
       width="135.46664"
       height="135.46664"
       x="1.1304364e-05"
       y="1.1304364e-05" />
    <g
       id="g5573"
       transform="matrix(2.8300379,0,0,2.8300379,-206.97227,-166.74373)">
      <g
         id="g1014"
         transform="matrix(0.03494031,0,0,0.03494031,79.178379,60.060589)"
         style="fill:#478cbf;fill-opacity:1">
        <path
           d="m 0,0 c 0,0 -0.325,1.994 -0.515,1.976 l -36.182,-3.491 c -2.879,-0.278 -5.115,-2.574 -5.317,-5.459 l -0.994,-14.247 -27.992,-1.997 -1.904,12.912 c -0.424,2.872 -2.932,5.037 -5.835,5.037 h -38.188 c -2.902,0 -5.41,-2.165 -5.834,-5.037 l -1.905,-12.912 -27.992,1.997 -0.994,14.247 c -0.202,2.886 -2.438,5.182 -5.317,5.46 l -36.2,3.49 c -0.187,0.018 -0.324,-1.978 -0.511,-1.978 l -0.049,-7.83 30.658,-4.944 1.004,-14.374 c 0.203,-2.91 2.551,-5.263 5.463,-5.472 l 38.551,-2.75 c 0.146,-0.01 0.29,-0.016 0.434,-0.016 2.897,0 5.401,2.166 5.825,5.038 l 1.959,13.286 h 28.005 l 1.959,-13.286 c 0.423,-2.871 2.93,-5.037 5.831,-5.037 0.142,0 0.284,0.005 0.423,0.015 l 38.556,2.75 c 2.911,0.209 5.26,2.562 5.463,5.472 l 1.003,14.374 30.645,4.966 z"
           fill="#ffffff"
           transform="matrix(4.162611,0,0,-4.162611,919.24059,673.15214)"
           id="path1002"
           style="fill:#478cbf;fill-opacity:1" />
        <path
           d="m 0,0 v -47.514 -6.035 -5.492 c 0.108,-0.001 0.216,-0.005 0.323,-0.015 l 36.196,-3.49 c 1.896,-0.183 3.382,-1.709 3.514,-3.609 l 1.116,-15.978 31.574,-2.253 2.175,14.747 c 0.282,1.912 1.922,3.329 3.856,3.329 h 38.188 c 1.933,0 3.573,-1.417 3.855,-3.329 l 2.175,-14.747 31.575,2.253 1.115,15.978 c 0.133,1.9 1.618,3.425 3.514,3.609 l 36.182,3.49 c 0.107,0.01 0.214,0.014 0.322,0.015 v 4.711 l 0.015,0.005 V 0 c 5.09692,6.4164715 9.92323,13.494208 13.621,19.449 -5.651,9.62 -12.575,18.217 -19.976,26.182 -6.864,-3.455 -13.531,-7.369 -19.828,-11.534 -3.151,3.132 -6.7,5.694 -10.186,8.372 -3.425,2.751 -7.285,4.768 -10.946,7.118 1.09,8.117 1.629,16.108 1.846,24.448 -9.446,4.754 -19.519,7.906 -29.708,10.17 -4.068,-6.837 -7.788,-14.241 -11.028,-21.479 -3.842,0.642 -7.702,0.88 -11.567,0.926 v 0.006 c -0.027,0 -0.052,-0.006 -0.075,-0.006 -0.024,0 -0.049,0.006 -0.073,0.006 V 63.652 C 93.903,63.606 90.046,63.368 86.203,62.726 82.965,69.964 79.247,77.368 75.173,84.205 64.989,81.941 54.915,78.789 45.47,74.035 45.686,65.695 46.225,57.704 47.318,49.587 43.65,47.237 39.795,45.22 36.369,42.469 32.888,39.791 29.333,37.229 26.181,34.097 19.884,38.262 13.219,42.176 6.353,45.631 -1.048,37.666 -7.968,29.069 -13.621,19.449 -9.1783421,12.475308 -4.4130298,5.4661124 0,0 Z"
           fill="#478cbf"
           transform="matrix(4.162611,0,0,-4.162611,104.69892,427.38725)"
           id="path1004"
           style="fill:#478cbf;fill-opacity:1" />
        <path
           d="m 0,0 -1.121,-16.063 c -0.135,-1.936 -1.675,-3.477 -3.611,-3.616 l -38.555,-2.751 c -0.094,-0.007 -0.188,-0.01 -0.281,-0.01 -1.916,0 -3.569,1.406 -3.852,3.33 l -2.211,14.994 H -81.09 l -2.211,-14.994 c -0.297,-2.018 -2.101,-3.469 -4.133,-3.32 l -38.555,2.751 c -1.936,0.139 -3.476,1.68 -3.611,3.616 L -130.721,0 -163.268,3.138 c 0.015,-3.498 0.06,-7.33 0.06,-8.093 0,-34.374 43.605,-50.896 97.781,-51.086 h 0.066 0.067 c 54.176,0.19 97.766,16.712 97.766,51.086 0,0.777 0.047,4.593 0.063,8.093 z"
           fill="#478cbf"
           id="path1006"
           transform="matrix(4.162611,0,0,-4.162611,784.07144,718.72312)"
           style="fill:#478cbf;fill-opacity:1" />
        <path
           d="m 0,0 c 0,-12.052 -9.765,-21.815 -21.813,-21.815 -12.042,0 -21.81,9.763 -21.81,21.815 0,12.044 9.768,21.802 21.81,21.802 C -9.765,21.802 0,12.044 0,0"
           fill="#ffffff"
           transform="matrix(4.162611,0,0,-4.162611,389.21484,527.15132)"
           id="path1008"
           style="display:none;fill:#478cbf;fill-opacity:1" />
        <path
           d="m 0,0 c -3.878,0 -7.021,2.858 -7.021,6.381 v 20.081 c 0,3.52 3.143,6.381 7.021,6.381 3.878,0 7.028,-2.861 7.028,-6.381 V 6.381 C 7.028,2.858 3.878,0 0,0"
           fill="#ffffff"
           transform="matrix(4.162611,0,0,-4.162611,511.99336,626.21982)"
           id="path1010"
           style="display:none;fill:#478cbf;fill-opacity:1" />
        <path
           d="m 0,0 c 0,-12.052 9.765,-21.815 21.815,-21.815 12.041,0 21.808,9.763 21.808,21.815 0,12.044 -9.767,21.802 -21.808,21.802 C 9.765,21.802 0,12.044 0,0"
           fill="#ffffff"
           transform="matrix(4.162611,0,0,-4.162611,634.78706,527.15132)"
           id="path1012"
           style="display:none;fill:#478cbf;fill-opacity:1" />
      </g>
      <g
         id="g827"
         transform="translate(0,-0.02662556)">
        <text
           xml:space="preserve"
           transform="matrix(0.15119226,0,0,0.15119226,64.075638,52.808597)"
           id="text1020"
           style="font-style:normal;font-weight:normal;font-size:96px;line-height:1.25;font-family:sans-serif;white-space:pre;shape-inside:url(#rect1028);display:inline;fill:#ffffff;fill-opacity:1;stroke:none"><tspan
             x="156.97461"
             y="237.6639"
             id="tspan6025"><tspan
               style="font-family:'Lilita One';-inkscape-font-specification:'Lilita One'"
               id="tspan6023">XR</tspan></tspan></text>
        <text
           xml:space="preserve"
           transform="matrix(0.15946777,0,0,0.15946777,65.282364,29.475922)"
           id="text1026"
           style="font-style:normal;font-weight:normal;font-size:40px;line-height:1.25;font-family:sans-serif;white-space:pre;shape-inside:url(#rect1030);display:inline;fill:#ffffff;fill-opacity:1;stroke:none"><tspan
             x="136.24219"
             y="298.70143"
             id="tspan6029"><tspan
               style="font-family:'Lilita One';-inkscape-font-specification:'Lilita One'"
               id="tspan6027">GODOT</tspan></tspan></text>
      </g>
      <g
         id="g5498"
         transform="translate(0.09863795)">
        <text
           xml:space="preserve"
           style="font-style:normal;font-weight:normal;font-size:7.76111px;line-height:1.25;font-family:sans-serif;fill:#000000;fill-opacity:1;stroke:none;stroke-width:0.211642"
           x="81.787834"
           y="101.32603"
           id="text1034"><tspan
             id="tspan1032"
             style="font-style:normal;font-variant:normal;font-weight:300;font-stretch:normal;font-size:7.76111px;font-family:'Roboto Condensed';-inkscape-font-specification:'Roboto Condensed,  Light';stroke-width:0.211642"
             x="81.787834"
             y="101.32603"
             sodipodi:role="line">toggle</tspan></text>
        <path
           id="path3149"
           style="fill:#478cbf;fill-opacity:1;stroke:none;stroke-width:0.499999;stroke-linecap:square;stroke-linejoin:round;stroke-dasharray:none;stroke-opacity:1;paint-order:normal;stop-color:#000000"
           d="m 109.69521,96.907346 c -1.88323,0.03954 -3.88362,0.01964 -5.51904,0.01964 -1.2786,-3e-6 -2.31511,1.036506 -2.31511,2.315104 0,1.27859 1.03651,2.3151 2.31511,2.3151 1.81238,-0.0456 3.685,-0.0196 5.51904,-0.0196 1.27859,0 2.3151,-1.03651 2.3151,-2.315097 0,-1.278595 -1.0365,-2.315102 -2.3151,-2.315104 z"
           sodipodi:nodetypes="ccscssc" />
        <circle
           style="fill:#ffffff;fill-opacity:1;stroke:none;stroke-width:0.386409;stroke-linecap:square;stroke-linejoin:round;stroke-dasharray:none;stroke-opacity:1;paint-order:normal;stop-color:#000000"
           id="circle3254"
           cx="109.70263"
           cy="99.232269"
           r="1.7891556" />
      </g>
    </g>
  </g>
</svg>
